<?xml version="1.0" encoding="UTF-8"?>
<svg version="1.2" baseProfile="tiny-ps" xmlns="http://www.w3.org/2000/svg" viewBox="0 0 512 512">
<title>ZT Network</title>
<rect width="512" height="512" fill="#0A1528"/>
<polygon points="256.0,86.0 376.2,135.8 426.0,256.0 376.2,376.2 256.0,426.0 135.8,376.2 86.0,256.0 135.8,135.8" fill="none" stroke="#1E8FFF" stroke-width="7"/>
<polygon points="256.0,86.0 426.0,256.0 256.0,426.0 86.0,256.0" fill="none" stroke="#1E8FFF" stroke-width="5"/>
<polygon points="376.2,135.8 376.2,376.2 135.8,376.2 135.8,135.8" fill="none" stroke="#1E8FFF" stroke-width="5"/>
<circle cx="256" cy="256" r="112" fill="none" stroke="#2BB8FF" stroke-width="12"/>
<circle cx="256.0" cy="86.0" r="24" fill="#2BB8FF"/><circle cx="376.2" cy="135.8" r="24" fill="#2BB8FF"/><circle cx="426.0" cy="256.0" r="24" fill="#2BB8FF"/><circle cx="376.2" cy="376.2" r="24" fill="#2BB8FF"/><circle cx="256.0" cy="426.0" r="24" fill="#2BB8FF"/><circle cx="135.8" cy="376.2" r="24" fill="#2BB8FF"/><circle cx="86.0" cy="256.0" r="24" fill="#2BB8FF"/><circle cx="135.8" cy="135.8" r="24" fill="#2BB8FF"/>
</svg>
